<svg width="72" height="18" viewBox="0 0 72 18" fill="none" xmlns="http://www.w3.org/2000/svg">
<g id="Group">
<g id="Group_2">
<path id="Vector" d="M12.7364 2.2514C12.3941 2.2514 12.1194 1.98836 12.1194 1.65467C12.1194 1.32097 12.398 1.04617 12.7364 1.04617C13.0747 1.04617 13.3533 1.32097 13.3533 1.65467C13.3533 1.98836 13.0747 2.2514 12.7364 2.2514ZM10.575 2.2514C10.2486 2.2514 9.97003 1.98836 9.97003 1.65467C9.97003 1.32097 10.2486 1.04617 10.575 1.04617C10.9293 1.04617 11.2079 1.32097 11.2079 1.65467C11.2079 1.98836 10.9293 2.2514 10.575 2.2514ZM12.7722 0.209961C12.3065 0.209961 11.9005 0.445512 11.6617 0.720321C11.395 0.433735 11.0169 0.209961 10.5392 0.209961C9.71927 0.209961 9.0625 0.857721 9.0625 1.65467C9.0625 2.45161 9.74315 3.09938 10.5392 3.09938C10.7542 3.09938 10.993 3.06012 11.1721 2.97375V4.14365H12.1433V2.97375C12.3582 3.07189 12.5971 3.09938 12.7762 3.09938C13.5961 3.09938 14.2648 2.43983 14.2648 1.65467C14.2648 0.869499 13.5961 0.209961 12.7762 0.209961H12.7722Z" fill="white"/>
<path id="Vector_2" d="M0.312656 17.896H1.43911C2.38245 17.896 3.02329 17.684 3.44918 17.052L7.30217 11.1828C7.51711 11.5205 7.45742 12.0269 6.98773 12.7453L3.60841 17.896H4.64329C5.58664 17.896 6.22747 17.684 6.65337 17.052L10.5064 11.1828C10.7213 11.5205 10.6616 12.0269 10.1919 12.7453L6.84442 17.845H7.83951C8.79878 17.845 9.43167 17.6212 9.84563 16.9735L10.5143 15.9763H10.5382C13.0657 15.9763 15.2629 14.4177 15.2629 11.1671V9.18852C15.2629 7.69277 17.9417 7.85766 17.9417 6.54643H15.3266C15.1236 6.54643 15.0997 6.52288 14.9206 6.33444C14.037 5.3255 12.8986 4.77588 11.6487 4.77588C9.59088 4.77588 8.38881 5.71023 7.22655 7.40227L0.304688 17.8921L0.312656 17.896Z" fill="white"/>
</g>
<path id="Vector_3" d="M45.056 11.2692L42.6519 6.54639H40.7891V14.9909H42.7196V10.3505L44.3674 13.6011H45.7446L47.3925 10.3505V14.9909H49.323V6.54639H47.4602L45.056 11.2692Z" fill="white"/>
<path id="Vector_4" d="M36.7155 13.2556L35.2588 9.42795H31.0634L29.3877 11.6068V6.54639H27.4453V14.9909H29.3877V12.4155L31.3421 14.9909H33.6984L31.2187 11.913L33.177 9.54573L35.1593 14.2764C35.4259 14.9909 35.7205 15.5051 35.7205 15.8074C35.7205 16.1097 35.5214 16.204 35.2667 16.204C34.8766 16.204 34.3154 15.9252 33.9652 15.7682L33.3084 17.2875C33.5631 17.4602 34.5662 17.896 35.2628 17.896C36.7116 17.896 37.233 17.0519 37.9694 15.0929C38.4789 13.7582 40.0989 9.55751 40.1387 9.42403H38.0211L36.7036 13.2517L36.7155 13.2556Z" fill="white"/>
<path id="Vector_5" d="M65.9566 9.42773H64.0938V14.9906H65.9566V9.42773Z" fill="white"/>
<path id="Vector_6" d="M71.6899 13.2595C71.678 12.439 71.0331 11.9129 70.2013 11.6067L69.1425 11.2495C68.8878 11.1317 68.7524 11.0767 68.7524 10.8804C68.7524 10.7352 68.9116 10.6174 69.3136 10.6174C69.7674 10.6174 70.4242 10.7627 70.9894 11.0021L71.4909 9.61239C70.8341 9.37291 70.2013 9.2041 69.4768 9.2041C67.829 9.2041 67.0528 9.9029 67.0528 11.0021C67.0528 11.8619 67.7215 12.4154 68.6609 12.7845L69.4768 13.0475C69.7316 13.1417 70.054 13.2438 70.054 13.4558C70.054 13.6403 69.7316 13.7188 69.3853 13.7188C68.6609 13.7188 67.9245 13.4558 67.2956 13.0828L66.7344 14.5746C67.4867 14.9829 68.2748 15.1557 69.1465 15.1557C70.6471 15.1557 71.7735 14.5746 71.6939 13.2516L71.6899 13.2595Z" fill="white"/>
<path id="Vector_7" d="M60.2916 12.9296L59.0856 9.42773H57.0078L59.3801 14.9906H60.2916H61.1872L63.5714 9.42773H61.4976L60.2916 12.9296Z" fill="white"/>
<path id="Vector_8" d="M65.002 6.31836C64.3612 6.31836 63.8438 6.82872 63.8438 7.46078C63.8438 8.09284 64.3612 8.6032 65.002 8.6032C65.6429 8.6032 66.1603 8.09284 66.1603 7.46078C66.1603 6.82872 65.6429 6.31836 65.002 6.31836Z" fill="white"/>
<path id="Vector_9" d="M25.0303 10.1814L23.6093 9.29412C23.1277 9.01539 22.9645 8.8191 22.9645 8.57962C22.9645 8.28911 23.1237 8.10459 23.7406 8.10459C24.2899 8.10459 24.9865 8.28911 25.7507 8.66206L26.3677 6.93077C25.496 6.54603 24.6283 6.32227 23.6889 6.32227C21.8659 6.32227 20.9106 7.21736 20.9106 8.57962C20.9106 9.54145 21.4042 10.3109 22.4908 10.9587L23.8163 11.7399C24.3258 12.0304 24.6482 12.2699 24.6482 12.6546C24.6482 13.0904 24.286 13.3417 23.6013 13.3417C22.865 13.3417 22.1007 13.0511 21.2569 12.5761L20.2578 14.2839C21.2211 14.8413 22.2719 15.1632 23.5297 15.1632C25.496 15.1632 26.6662 14.276 26.6662 12.6546C26.6622 11.4612 26.0333 10.7624 25.0263 10.1814H25.0303Z" fill="white"/>
<path id="Vector_10" d="M54.6609 10.1857C54.3464 9.73811 53.7175 9.18457 52.7383 9.18457C51.1979 9.18457 50.0078 10.4605 50.0078 12.1878C50.0078 13.9152 51.1979 15.1911 52.7383 15.1911C53.7175 15.1911 54.3146 14.7789 54.6609 14.2253V14.9948H56.4799V9.4319H54.6609V10.1896V10.1857ZM53.1921 13.4991C52.4557 13.4991 51.8985 12.9809 51.8985 12.1878C51.8985 11.3948 52.4597 10.9119 53.1921 10.9119C53.9245 10.9119 54.5215 11.4301 54.5215 12.1878C54.5215 12.9455 53.9285 13.4991 53.1921 13.4991Z" fill="white"/>
</g>
</svg>
